<svg version="1.1" id="pathzero-logo" xmlns="http://www.w3.org/2000/svg" x="0" y="0" viewBox="0 0 326.7 85.9" style="enable-background:new 0 0 326.7 85.9" xml:space="preserve"><path fill="#00a392" d="M3.4 33.7 29 40c.5.1 1.1-.2 1.2-.7s-.2-1.1-.7-1.2L4.4 30c-1-.3-2.1.3-2.4 1.3-.2 1.1.4 2.1 1.4 2.4zM2.6 55.5l26.9-8c.5-.1.8-.7.7-1.2-.1-.5-.7-.8-1.2-.7L1.6 51.9c-1 .2-1.7 1.3-1.4 2.3s1.3 1.6 2.4 1.3zM33.6 84.5l6.8-27.2c.1-.5-.2-1.1-.7-1.2-.5-.1-1.1.2-1.2.7L30 83.4c-.3 1 .3 2.1 1.3 2.4 1 .3 2.1-.3 2.3-1.3zM55.4 82.2 48 56.9c-.1-.5-.7-.8-1.2-.7-.5.1-.8.7-.7 1.2l5.7 25.8c.2 1 1.3 1.7 2.3 1.4 1-.3 1.6-1.4 1.3-2.4zM13.4 14.9l19 18.2c.4.4 1 .4 1.4 0 .4-.4.4-1 0-1.4L16.1 12.3c-.7-.8-1.9-.8-2.7-.1s-.7 2 0 2.7zM73.4 71l-19-18.2c-.4-.4-1-.4-1.4 0s-.4 1 0 1.4l17.8 19.5c.7.8 1.9.8 2.7.1.7-.9.7-2.1-.1-2.8z"></path><path fill="#00b0a3" d="M31.5 3.7 38.8 29c.1.5.7.8 1.2.7.5-.1.9-.7.7-1.2L35.1 2.8c-.2-1-1.3-1.7-2.3-1.4-1 .2-1.6 1.3-1.3 2.3zM83.4 52.2l-25.6-6.3c-.5-.1-1.1.2-1.2.7-.2.5.1 1.1.7 1.2l25.1 8c1 .3 2.1-.3 2.4-1.3s-.4-2-1.4-2.3z"></path><path fill="#00a392" d="m7.2 23.6 23.1 12.7c.5.3 1.1.1 1.4-.4.3-.5.1-1.1-.3-1.4L9.1 20.4c-.9-.6-2.1-.3-2.6.6-.6.9-.2 2.1.7 2.6zM2.4 44.3l26.4-.6c.5 0 1-.4 1-1 0-.5-.4-1-1-1L2.4 40.6c-1.1 0-2 .8-2 1.9.1 1 .9 1.9 2 1.8zM2.8 67.8 31.1 51c.5-.3.6-.9.4-1.4-.3-.5-.9-.6-1.3-.4L1 64.6c-.9.5-1.3 1.7-.8 2.6.6.9 1.7 1.2 2.6.6zM21 84.5l15.8-28.4c.3-.5.1-1.1-.4-1.3-.5-.3-1.1-.1-1.4.3L17.8 82.5c-.6.9-.3 2.1.6 2.6.9.6 2.1.3 2.6-.6zM44.8 84l-.6-26.4c0-.5-.5-1-1-1s-1 .4-1 1L41 83.9c0 1.1.8 2 1.9 2 1.1 0 1.9-.9 1.9-1.9zM65.1 77.8 51.5 55.2c-.3-.5-.9-.6-1.3-.4-.5.3-.7.9-.4 1.3l12.1 23.4c.5.9 1.7 1.3 2.6.8.9-.4 1.2-1.6.6-2.5zM21.9 7.9l13.5 22.7c.3.5.9.6 1.3.4.5-.3.7-.9.4-1.3L25.2 6.1c-.5-1-1.6-1.3-2.6-.8-.9.5-1.2 1.7-.7 2.6zM79.4 62.5l-23-12.9c-.5-.3-1.1-.1-1.3.4-.3.5-.1 1.1.3 1.4l22.1 14.4c.9.6 2.1.3 2.6-.6.5-1 .2-2.2-.7-2.7z"></path><path fill="#0fb3a8" d="m42 1.9.6 26.4c0 .5.5 1 1 1s1-.4 1-1L45.8 2c0-1.1-.8-2-1.9-2-1 0-1.9.9-1.9 1.9zM84.4 41.6l-26.4.6c-.5 0-1 .5-1 1s.4 1 1 1l26.3 1.2c1.1 0 1.9-.8 2-1.9.1-1.1-.8-2-1.9-1.9z"></path><path d="M79.6 5.5c.7-.8 2-.8 2.7 0 .7.8.7 2-.1 2.7L54.6 33.5c-.4.4-1 .3-1.4 0-.4-.4-.4-1 0-1.4L79.6 5.5z" style="fill:#60bfb7"></path><path fill="#f7f8fa" d="m84.2 30.4-26.9 8c-.5.2-.8.7-.7 1.2.1.5.7.8 1.2.7L85.2 34c1-.2 1.7-1.3 1.4-2.3-.3-1-1.3-1.6-2.4-1.3zM53.2 1.4l-6.8 27.2c-.1.5.2 1.1.7 1.2.5.2 1.1-.1 1.2-.7l8.5-26.7c.3-1-.3-2.1-1.3-2.4-1-.2-2.1.4-2.3 1.4z"></path><path fill="#00a392" d="m2.6 55.5 26.9-8c.5-.1.8-.7.7-1.2-.1-.5-.7-.8-1.2-.7L1.6 51.9c-1 .2-1.7 1.3-1.4 2.3s1.3 1.6 2.4 1.3zM33.6 84.5l6.8-27.2c.1-.5-.2-1.1-.7-1.2-.5-.1-1.1.2-1.2.7L30 83.4c-.3 1 .3 2.1 1.3 2.4 1 .3 2.1-.3 2.3-1.3zM2.8 67.8 31.1 51c.5-.3.6-.9.4-1.4-.3-.5-.9-.6-1.3-.4L1 64.6c-.9.5-1.3 1.7-.8 2.6.6.9 1.7 1.2 2.6.6zM21 84.5l15.8-28.4c.3-.5.1-1.1-.4-1.3-.5-.3-1.1-.1-1.4.3L17.8 82.5c-.6.9-.3 2.1.6 2.6.9.6 2.1.3 2.6-.6z"></path><path fill="#38b7ad" d="m84.2 30.4-26.9 8c-.5.2-.8.7-.7 1.2.1.5.7.8 1.2.7L85.2 34c1-.2 1.7-1.3 1.4-2.3-.3-1-1.3-1.6-2.4-1.3zM53.2 1.4l-6.8 27.2c-.1.5.2 1.1.7 1.2.5.2 1.1-.1 1.2-.7l8.5-26.7c.3-1-.3-2.1-1.3-2.4-1-.2-2.1.4-2.3 1.4z"></path><path fill="#4ebbb2" d="M83.9 18.1 55.7 34.9c-.5.3-.6.9-.4 1.4.3.5.9.6 1.3.4l29.1-15.3c.9-.5 1.3-1.7.8-2.6-.5-1-1.6-1.3-2.6-.7zM65.8 1.4 50 29.9c-.3.5-.1 1.1.4 1.3.5.3 1.1.1 1.4-.3L69 3.4c.6-.9.3-2.1-.6-2.6-.9-.6-2.1-.3-2.6.6z"></path><path fill="#00a392" d="m7.4 80.2 26.2-26.3c.4-.4.4-1 0-1.4-.4-.4-1-.4-1.4 0l-27.4 25c-.8.8-.8 2-.1 2.7.8.8 2 .8 2.7 0z"></path><path fill="currentColor" d="M115.1 27c0-.4.3-.7.7-.7h13.1c1.9 0 3.6.3 5.2 1s2.9 1.5 4.1 2.6c1.1 1.1 2 2.4 2.7 4 .6 1.5.9 3.2.9 4.9 0 1.8-.3 3.4-.9 4.9-.6 1.5-1.5 2.8-2.7 4-1.2 1.1-2.5 2-4.1 2.7-1.6.7-3.4 1-5.3 1h-8.4v9.7c0 .4-.3.7-.7.7h-4c-.4 0-.7-.3-.7-.7V27zm5.2 4.6v14.6c0 .2.2.3.3.3h7.7c1.2 0 2.3-.2 3.4-.6 1-.4 1.9-.9 2.6-1.6.7-.7 1.2-1.5 1.6-2.4.4-.9.6-1.9.6-3s-.2-2.1-.6-3.1c-.4-.9-.9-1.8-1.6-2.4-.7-.7-1.5-1.2-2.6-1.6-1-.4-2.1-.6-3.4-.6h-7.7c-.1 0-.3.2-.3.4zM154.5 62.3c-1.5 0-2.9-.2-4-.6-1.2-.4-2.1-.9-2.9-1.6-.8-.7-1.4-1.5-1.8-2.5-.4-1-.6-2-.6-3.1 0-2.7 1-4.8 3.1-6.4s5-2.3 8.7-2.3h7.5c.2 0 .3-.2.3-.4 0-1.7-.6-3.2-1.7-4.3-1.1-1.1-2.8-1.7-5.1-1.7-1.8 0-3.2.4-4.5 1.1-1.1.7-2 1.5-2.7 2.5-.2.3-.6.4-.9.2l-3.4-2c-.4-.2-.4-.7-.2-1 1.2-1.5 2.7-2.7 4.5-3.7 2-1.1 4.4-1.7 7.2-1.7 1.9 0 3.5.2 5 .8s2.7 1.2 3.7 2.1c1 .9 1.8 2 2.3 3.3s.8 2.7.8 4.3v15.5c0 .4-.3.7-.7.7h-3.7c-.4 0-.7-.3-.7-.7v-4c-1 1.5-2.5 2.8-4.3 3.7-1.7 1.4-3.7 1.8-5.9 1.8zm.7-4.5c.9 0 2.3-.1 3.2-.4.9-.3 1.8-.6 2.6-1.1.8-.5 1.5-1 2.2-1.7 1-1.1 1.6-2.5 1.6-4v-.2c0-.2-.1-.3-.3-.3h-7.1c-2.4 0-4.2.4-5.2 1.1-1.1.7-1.6 1.7-1.6 3 0 1.1.4 2 1.2 2.7.8.5 1.9.8 3.4.9zM173.7 35.6h4.2c.2 0 .3-.1.3-.3v-5c0-.2.1-.4.3-.6l3.8-2.5c.4-.3 1 0 1 .6v7.5c0 .2.2.3.3.3h6.3c.4 0 .7.3.7.7v3.4c0 .4-.3.7-.7.7h-6.3c-.2 0-.3.1-.3.3v12.6c0 1.5.3 2.5.9 3.1.6.7 1.5 1 2.5 1 .8 0 1.5-.2 2.1-.6.3-.2.7-.1.9.2l1.8 3.2c.2.3.1.7-.2.9-.6.4-1.3.6-2 .8-.9.3-1.9.4-3 .4-2.6 0-4.6-.7-6.1-2.1-1.4-1.4-2.1-3.7-2.1-6.9V40.6c0-.2-.1-.3-.3-.3h-4.2c-.4 0-.7-.3-.7-.7v-3.4c.2-.3.5-.6.8-.6zM196.2 23.6h3.9c.4 0 .7.3.7.7v14c0 .3.4.4.6.2.8-.9 1.8-1.7 2.9-2.2 1.4-.7 3-1.1 4.8-1.1 1.7 0 3.2.3 4.5.8s2.5 1.3 3.4 2.3c.9 1 1.6 2.2 2.1 3.6s.8 3 .8 4.8v14.5c0 .4-.3.7-.7.7h-4c-.4 0-.7-.3-.7-.7V47c0-2.2-.6-4-1.7-5.3-1.1-1.3-2.8-2-5-2-1 0-1.9.2-2.7.5-.9.4-1.6.9-2.2 1.5s-1.1 1.5-1.5 2.4c-.4 1-.5 2-.5 3.2v13.8c0 .4-.3.7-.7.7h-3.9c-.4 0-.7-.3-.7-.7V24.2c0-.3.3-.6.6-.6zM224.9 56.8l15.2-15.9c.2-.2.1-.6-.2-.6h-14c-.4 0-.7-.3-.7-.7v-3.4c0-.4.3-.7.7-.7h20.9v4.8l-15.3 16.1c-.2.2 0 .5.2.5h14.7c.4 0 .7.3.7.7V61c0 .4-.3.7-.7.7h-21c-.4 0-.7-.3-.7-.7v-3.9s.1-.2.2-.3zM263.8 62.3c-2.1 0-4-.3-5.7-1-1.7-.7-3.2-1.7-4.4-2.9-1.2-1.2-2.2-2.6-2.8-4.3-.7-1.7-1-3.4-1-5.3s.3-3.7 1-5.4c.7-1.7 1.7-3.1 2.9-4.3 1.2-1.2 2.7-2.2 4.3-2.9s3.4-1.1 5.4-1.1 3.7.3 5.4 1 3.1 1.6 4.2 2.8c1.2 1.2 2.1 2.6 2.8 4.2.7 1.6 1 3.4 1 5.4V50c0 .4-.3.7-.7.7h-21c-.2 0-.4.2-.3.4.4 2 1.4 3.5 2.8 4.7 1.6 1.3 3.5 1.9 6 1.9 1.8 0 3.4-.4 4.6-1.2 1.1-.7 2-1.5 2.7-2.5.2-.3.6-.4.9-.2l3.2 1.9c.3.2.4.6.2 1-1.2 1.6-2.7 3-4.4 4-1.9 1.1-4.3 1.6-7.1 1.6zm-.3-22.6c-2.1 0-3.9.6-5.4 1.8-1.4 1.1-2.3 2.5-2.9 4.2-.1.2.1.4.3.4h15.7c.2 0 .4-.2.3-.4-.4-1.9-1.3-3.3-2.7-4.4-1.3-1.1-3.1-1.6-5.3-1.6zM282.6 35.6h3.8c.4 0 .7.3.7.7v3.9c.5-1.7 1.4-2.9 2.7-3.7 1.3-.8 2.7-1.2 4.4-1.2.9 0 1.7.1 2.5.3.5.1 1 .3 1.4.5.3.1.5.5.3.8l-1.5 3.8c-.1.3-.5.5-.9.4-.7-.3-1.6-.5-2.7-.5-1.9 0-3.4.5-4.5 1.5s-1.6 2.7-1.6 5v14.1c0 .4-.3.7-.7.7h-3.9c-.4 0-.7-.3-.7-.7V36.3c.1-.4.4-.7.7-.7zM313 62.3c-1.9 0-3.7-.4-5.3-1.1-1.7-.7-3.1-1.7-4.3-2.9-1.2-1.2-2.2-2.7-2.9-4.3-.7-1.6-1.1-3.4-1.1-5.3s.4-3.6 1.1-5.3c.7-1.7 1.7-3.1 2.9-4.3 1.2-1.2 2.7-2.2 4.3-2.9 1.6-.7 3.4-1.1 5.3-1.1s3.6.4 5.3 1.1c1.7.7 3.1 1.7 4.3 2.9s2.2 2.7 2.9 4.3c.7 1.7 1.1 3.4 1.1 5.3s-.4 3.7-1.1 5.3c-.7 1.7-1.7 3.1-2.9 4.3s-2.7 2.2-4.3 2.9c-1.6.8-3.4 1.1-5.3 1.1zm0-4.9c1.2 0 2.3-.2 3.3-.7 1-.5 1.9-1.1 2.7-1.9.8-.8 1.4-1.7 1.8-2.8.4-1 .7-2.2.7-3.4 0-1.2-.2-2.3-.7-3.4s-1-2-1.8-2.8c-.8-.8-1.7-1.4-2.7-1.9-1-.5-2.1-.7-3.3-.7-1.2 0-2.3.2-3.3.7s-1.9 1.1-2.7 1.9c-.8.8-1.3 1.7-1.8 2.8s-.6 2.2-.6 3.4c0 1.2.2 2.4.6 3.4s1 2 1.8 2.8c.8.8 1.7 1.4 2.7 1.9 1 .5 2.1.7 3.3.7z"></path></svg>